<svg width="1440" height="1259" viewBox="0 0 1440 1259" fill="none" xmlns="http://www.w3.org/2000/svg">
<g opacity="0.2" clip-path="url(#clip0_2699_9555)">
<g opacity="0.7" filter="url(#filter0_f_2699_9555)">
<path d="M321.199 496.004C321.199 720.783 805.971 886 1172.8 886C1539.63 886 1837 703.78 1837 479C1837 254.22 1539.63 72 1172.8 72C536.471 458.74 56.705 48.8462 321.199 496.004Z" fill="#35DBFF"/>
</g>
<g opacity="0.7" filter="url(#filter1_f_2699_9555)">
<path d="M482 392.423C482 449.158 1103.82 686 1239.44 686C1375.06 686 1485 640.007 1485 583.273C1485 526.538 1377.43 529.062 1241.81 529.062C1106.19 529.062 482 335.688 482 392.423Z" fill="#99EAFC"/>
</g>
<g opacity="0.7" filter="url(#filter2_f_2699_9555)">
<path d="M742.039 280.461C721.582 320.89 680.671 346.454 918.543 412.452C1156.42 478.449 1365.83 499.176 1386.29 458.747C1406.75 418.318 692.927 83.8982 455.054 17.9008C128.935 67.076 762.497 240.032 742.039 280.461Z" fill="#E914ED"/>
</g>
</g>
<defs>
<filter id="filter0_f_2699_9555" x="-108.766" y="-283.766" width="2301.53" height="1525.53" filterUnits="userSpaceOnUse" color-interpolation-filters="sRGB">
<feFlood flood-opacity="0" result="BackgroundImageFix"/>
<feBlend mode="normal" in="SourceGraphic" in2="BackgroundImageFix" result="shape"/>
<feGaussianBlur stdDeviation="177.883" result="effect1_foregroundBlur_2699_9555"/>
</filter>
<filter id="filter1_f_2699_9555" x="244.822" y="144.822" width="1477.36" height="778.355" filterUnits="userSpaceOnUse" color-interpolation-filters="sRGB">
<feFlood flood-opacity="0" result="BackgroundImageFix"/>
<feBlend mode="normal" in="SourceGraphic" in2="BackgroundImageFix" result="shape"/>
<feGaussianBlur stdDeviation="118.589" result="effect1_foregroundBlur_2699_9555"/>
</filter>
<filter id="filter2_f_2699_9555" x="124.402" y="-219.277" width="1499.5" height="935.861" filterUnits="userSpaceOnUse" color-interpolation-filters="sRGB">
<feFlood flood-opacity="0" result="BackgroundImageFix"/>
<feBlend mode="normal" in="SourceGraphic" in2="BackgroundImageFix" result="shape"/>
<feGaussianBlur stdDeviation="118.589" result="effect1_foregroundBlur_2699_9555"/>
</filter>
<clipPath id="clip0_2699_9555">
<rect width="1440" height="1259" fill="white" transform="matrix(-1 0 0 1 1440 0)"/>
</clipPath>
</defs>
</svg>
